<svg width="131" height="65" viewBox="0 0 131 65" fill="currentColor" xmlns="http://www.w3.org/2000/svg">
<path fill-rule="evenodd" clip-rule="evenodd" d="M65.5 65C101.675 65 131 50.4493 131 32.5C131 14.5507 101.675 0 65.5 0C29.3253 0 0 14.5507 0 32.5C0 50.4493 29.3253 65 65.5 65ZM45.2899 8.92053C35.6842 12.96 26.1018 21.8828 20.9716 27.9115C20.8296 27.9191 20.6094 27.911 20.3214 27.9004C18.7615 27.8432 15.2109 27.7131 11.2951 29.5919C12.0697 29.4535 16.4929 29.1084 19.194 30.0415C18.3333 30.9086 10.4916 41.2439 8.70508 45.281C9.318 45.3147 11.6305 44.8828 13.2023 43.9336C16.5114 41.9428 23.1176 33.2059 24.0853 31.7258C24.917 31.8698 32.4925 36.2745 30.9336 44.7734C30.9336 44.7734 38.7931 44.7396 38.7963 44.7099C39.0883 36.5126 43.5066 14.9444 45.2899 8.92053ZM32.7419 32.9251C31.5458 31.5633 27.0582 29.3522 26.3456 29.1511C28.9195 25.9296 33.5687 22.1451 34.8541 21.282C34.431 22.951 32.9148 31.4073 32.7419 32.9251ZM83.5953 34.5057C81.9906 38.8822 80.4172 42.9917 79.6121 44.6133L72.0511 44.6399C72.8393 43.155 78.9308 27.5552 80.9763 20.8283L88.4311 20.8034L88.3467 21.0635C87.8672 22.5408 86.5667 26.5482 84.9812 30.9609C87.2205 29.5742 94.8555 22.3663 95.9205 20.7768L103.408 20.7519C102.411 21.9987 94.5708 29.1229 90.8868 31.581C91.6534 33.0265 101.351 43.8146 112.16 45.9848C99.4348 48.6834 88.6877 40.5569 83.5953 34.5057ZM69.1714 20.8693L76.8008 20.8428C75.9466 23.4634 69.5873 40.857 67.7027 44.6552L59.799 44.6825C60.5897 43.1976 67.2321 27.8359 69.1714 20.8693ZM53.229 20.9232L45.8087 20.9498C44.0922 33.8123 45.1306 44.6664 45.2714 45.6992C49.2659 42.6523 59.9349 33.2396 68.3808 20.9047L62.3416 20.9248C59.8698 24.933 53.1686 33.0892 52.1358 34.0947C51.7697 31.749 52.6475 25.2499 53.0687 22.1305C53.1362 21.6312 53.1919 21.2185 53.229 20.9232ZM69.1537 16.636C68.5843 14.8326 70.6153 12.5836 73.6904 11.6168C76.7622 10.6499 79.7207 11.3272 80.2853 13.1298C80.858 14.9323 78.8254 17.1813 75.7519 18.1514C72.6785 19.119 69.7232 18.4394 69.1537 16.636ZM99.7618 33.4794C99.7851 40.4757 105.075 42.7344 110.183 42.7167C117.052 42.6925 123.316 36.1555 123.294 29.6072C123.27 23.0572 118.7 20.0755 113.414 20.0924C106.443 20.1181 99.7353 26.1766 99.7618 33.4794ZM113.426 23.7828C114.706 23.7779 116.262 24.5992 116.272 27.6333C116.284 30.6673 113.939 36.2745 112.165 37.6781C110.771 38.7825 109.731 38.6563 109.273 38.6006L109.273 38.6006C109.2 38.5917 109.141 38.5847 109.099 38.5847C108.786 38.5855 106.885 38.1447 106.876 35.5257C106.868 32.9034 108.13 28.4553 109.709 26.3109C111.289 24.1689 112.326 23.7868 113.426 23.7828Z"/>
<path fill-rule="evenodd" clip-rule="evenodd" d="M125.918 10.546L126.396 10.5516L127.109 11.7461L127.574 11.7526L126.808 10.538C127.211 10.4921 127.523 10.283 127.528 9.79555C127.536 9.2518 127.217 9.00968 126.569 9.00164L125.52 8.98877L125.484 11.7276L125.903 11.7333L125.918 10.546ZM125.922 10.1937L125.932 9.34271L126.502 9.35076C126.791 9.35317 127.099 9.42074 127.095 9.76339C127.089 10.1849 126.774 10.2058 126.421 10.201L125.922 10.1937Z"/>
<path fill-rule="evenodd" clip-rule="evenodd" d="M126.5 12.5C127.605 12.5 128.5 11.6046 128.5 10.5C128.5 9.39543 127.605 8.5 126.5 8.5C125.395 8.5 124.5 9.39543 124.5 10.5C124.5 11.6046 125.395 12.5 126.5 12.5ZM126.5 13C127.881 13 129 11.8807 129 10.5C129 9.11929 127.881 8 126.5 8C125.119 8 124 9.11929 124 10.5C124 11.8807 125.119 13 126.5 13Z"/>
</svg>
