<svg width="120" height="14" viewBox="0 0 120 14" fill="currentColor" xmlns="http://www.w3.org/2000/svg">
<path d="M49.8383 0.177533C50.2418 1.11221 50.2418 1.71898 50.2418 2.37633V11.5743C50.2418 12.2315 50.2418 12.8382 49.8383 13.7727H52.9196C52.4896 12.8382 52.5152 12.2315 52.5152 11.5743V2.37633C52.5152 1.71898 52.4896 1.11221 52.9196 0.177533H49.8383ZM64.7059 12.863H62.0795V1.13784H64.3274C68.4444 1.13784 70.0864 4.75911 70.1616 7.03802C70.2374 9.29283 69.4798 12.863 64.7059 12.863ZM65.1607 0.177533H59.4528C59.857 1.11221 59.8068 1.71983 59.8068 2.37871V11.5974C59.8068 12.6105 59.8316 12.863 59.4024 13.7985H64.8323C69.3792 13.7985 72.713 10.4571 72.6617 6.91157C72.5868 2.7073 69.1514 0.177533 65.1607 0.177533ZM97.5029 0.177533C97.9326 1.11221 97.9073 1.71898 97.9073 2.37633V11.5743C97.9073 12.5847 97.9326 12.8382 97.5029 13.7727H100.584C100.155 12.8382 100.181 12.5847 100.181 11.5743V6.89918H104.954L105.282 5.93904H100.181V1.25665H104.62C105.176 1.25665 105.428 1.23187 107.045 1.83796L106.363 0.177533H97.5029ZM84.7873 12.863C82.9692 12.8885 79.9638 10.7915 79.7106 6.92413C79.5594 4.65015 80.9236 1.21286 84.7873 1.23934C86.6069 1.23934 89.5868 3.25975 89.839 7.10167C89.991 9.40111 88.7788 12.788 84.7873 12.863ZM84.7873 0.127125C80.4435 0.127125 77.2614 3.61397 77.2614 7.20231C77.2614 11.2209 80.7463 13.9752 84.8129 13.925C89.1576 13.8489 92.3395 10.4373 92.3395 6.84894C92.3395 2.7297 88.8292 0.127125 84.7873 0.127125ZM113.778 13.7727C113.349 12.8382 113.373 12.5847 113.373 11.5743V6.89918H118.147L118.476 5.93904H113.373V1.25665H117.575C118.131 1.25665 118.383 1.23187 120 1.83796L119.318 0.177533H110.697C111.126 1.11221 111.101 1.71898 111.101 2.37633V11.5743C111.101 12.5847 111.126 12.8382 110.697 13.7727H113.778ZM23.5488 0H23.0184L18.0679 11.7516C17.6643 12.7118 17.4869 12.9903 16.8813 13.7985H18.2957L22.5751 3.57103L24.3213 7.62425L22.5685 7.62171V8.85527L24.847 8.85358L26.9587 13.7985H30.0902C29.1561 12.7367 28.9037 12.5848 28.4233 11.4478L27.3176 8.85205L31.5055 8.84933L31.975 7.62171L26.7952 7.62425L23.5488 0ZM5.30435 12.863H2.67779V1.13784H4.92556C9.04266 1.13784 10.6838 4.75911 10.7598 7.03802C10.8358 9.29283 10.0783 12.863 5.30435 12.863ZM5.75913 0.177533H0.0512284C0.45461 1.11221 0.404399 1.71983 0.404399 2.37871V11.5974C0.404399 12.6105 0.429844 12.863 0 13.7985H5.43072C9.97665 13.7985 13.3106 10.4571 13.2602 6.91157C13.1844 2.7073 9.74985 0.177533 5.75913 0.177533ZM39.6255 10.3869L35.2816 0.202313H32.1499C33.0841 1.26327 33.311 1.41517 33.7912 2.55301L38.6905 14H39.2211L44.1725 2.22409C44.5512 1.28975 44.7524 0.985767 45.359 0.202143H43.9446L39.6255 10.3869Z" />
</svg>
