<svg width="90" height="90" viewBox="0 0 90 90" fill="currentColor" xmlns="http://www.w3.org/2000/svg">
<path d="M0 45V90H45H90V46.9553V3.88179L84.2492 9.63258L78.4984 15.3834V46.9265V78.4984H45H11.5016V45V11.5016H42.9297H74.3291L80.0799 5.7508L85.8307 0H42.901H0V45Z" />
<path d="M25.6198 13.5143C24.7859 13.6294 23.952 13.9169 23.837 14.1469C23.6933 14.3482 23.607 18.6613 23.6645 23.722L23.722 32.9233H25.8786H28.0351L28.1789 29.1853L28.3226 25.4473L29.5878 28.8977C30.2779 30.7955 30.968 32.5207 31.1405 32.6933C31.4568 33.1246 35.5399 33.2108 35.7987 32.8083C35.8849 32.6645 35.1661 30.7667 34.2172 28.6102C33.2683 26.4824 32.492 24.6134 32.492 24.4696C32.492 24.3546 32.7795 24.0096 33.0958 23.6933C35.2236 21.8243 35.3674 17.3961 33.3833 15.1246C32.1469 13.7156 28.8115 13.0255 25.6198 13.5143ZM29.6166 17.2524C30.1917 17.8274 30.3642 18.9489 30.2204 20.9904C30.1341 22.1405 29.5016 23.0032 28.6964 23.0032C28.2364 23.0032 28.1789 22.7156 28.1789 19.8402C28.1789 16.4185 28.4089 16.0447 29.6166 17.2524Z" />
<path d="M13.6576 13.8594C13.5713 14.0607 13.5426 18.4313 13.5713 23.5783L13.6576 32.9233L15.9004 33.0096L18.1145 33.0958V29.0703V25.0447L19.7822 24.9584L21.4212 24.8722L21.5074 23.0894L21.5937 21.3067L19.926 21.2204L18.2582 21.1342L18.172 19.3514L18.0857 17.5687L20.1847 17.4824L22.2838 17.3961V15.5271V13.6581L18.0282 13.5719C14.779 13.5144 13.7439 13.5719 13.6576 13.8594Z" />
<path d="M37.0921 14.0607C36.632 14.9233 36.6895 31.9457 37.1783 32.5783C37.4946 33.0383 38.041 33.0671 41.6927 33.0096L45.8621 32.9233L45.9483 30.968L46.0346 29.0415H43.7055H41.4052V27.0287V25.0447L43.3605 24.9585L45.287 24.8722L45.3732 23.0895L45.4595 21.3067L43.5042 21.2204L41.549 21.1342L41.4627 19.3227L41.3764 17.5399H43.7055H46.0058V15.5271V13.5144H41.6927C37.7534 13.5144 37.3796 13.5719 37.0921 14.0607Z" />
<path d="M48.6517 13.8594C48.3929 14.1182 48.3066 16.5336 48.3066 23.492V32.7796L48.968 32.9233C49.313 33.0096 51.3546 33.0384 53.4824 33.0096L57.3641 32.9233V31.0543V29.1853L55.1501 29.0991L52.9073 29.0128V27.0288V25.0447L54.8626 24.9585L56.7891 24.8722V23.147V21.4217L54.8626 21.3355L52.9073 21.2492V19.409V17.5687L55.1501 17.4824L57.3641 17.3962V15.5272V13.6582L53.1948 13.5719C50.1757 13.5144 48.9105 13.6007 48.6517 13.8594Z" />
<path d="M18.2874 35.6262C17.9136 36.2013 13.2267 54.1438 13.3992 54.3738C13.4854 54.5176 14.2043 54.6326 14.9806 54.6326C16.5046 54.6326 16.6771 54.46 17.0797 52.5335C17.2522 51.7859 17.3097 51.7572 19.2362 51.7572H21.1915L21.4503 53.1086L21.7091 54.4888L24.0957 54.5751C26.0797 54.6326 26.4535 54.5751 26.4535 54.2013C26.4535 53.7987 23.233 41.3195 21.9679 36.8626L21.5366 35.3674H19.9838C19.15 35.3674 18.3736 35.4824 18.2874 35.6262ZM19.6963 45.46C19.9551 46.639 20.2139 47.8179 20.3001 48.0767C20.4152 48.508 20.2714 48.5942 19.2937 48.5942C18.5461 48.5942 18.1148 48.4505 18.1148 48.2204C18.1148 47.6453 19.0637 43.1022 19.15 43.2172C19.2075 43.2747 19.4375 44.2811 19.6963 45.46Z" />
<path d="M19.4092 56.6166C17.9715 56.9904 16.7351 57.738 15.9875 58.7444C14.1185 61.2173 13.3134 64.9265 13.8022 68.9521C14.1472 71.7125 14.7223 73.2652 15.9875 74.7317C18.1441 77.2908 22.6297 77.4633 25.1025 75.1342L25.8789 74.3579V69.8435C25.8789 65.9904 25.8214 65.3003 25.4188 65.1566C24.5849 64.8403 20.5594 64.9553 20.1856 65.3291C19.8118 65.7029 19.7255 67.4856 20.0131 68.262C20.1281 68.5495 20.5306 68.7221 21.0195 68.7221C21.8533 68.7221 21.8533 68.7508 21.8533 70.361C21.8533 71.2812 21.7383 72.2013 21.5945 72.4026C21.1632 73.0927 20.0418 72.6614 19.438 71.5975C18.8917 70.7061 18.8341 70.1023 18.8341 66.278C18.8341 61.4473 19.1217 60.2109 20.3581 59.8946C21.1345 59.7221 21.2207 59.7796 22.5147 61.8211C23.3198 63.0575 24.4124 63.2876 25.275 62.4249C26.569 61.131 25.7064 58.3419 23.6936 57.163C22.6584 56.5591 20.6169 56.3003 19.4092 56.6166Z" />
<path d="M37.8124 56.7604C37.6686 56.8179 37.1798 56.9617 36.7485 57.0479L35.9434 57.2204V66.7093V76.1981H38.0999C40.6303 76.1981 40.5152 76.4281 40.6303 71.9425L40.6878 68.9808L42.0105 72.5176L43.3331 76.0543L45.6622 76.1406C47.7613 76.2268 48.02 76.1693 47.9913 75.7093C47.9913 75.4217 47.2437 73.4952 46.3236 71.4537L44.6271 67.7157L45.6047 66.6518C48.1638 63.8051 47.4162 59.0032 44.167 57.3067C43.3331 56.8754 38.56 56.4728 37.8124 56.7604ZM42.183 60.9585C42.7868 62.1374 42.643 64.7827 41.9529 65.6741C40.8028 67.1406 40.544 66.7093 40.544 63.23C40.544 60.1246 40.544 60.0671 41.1766 60.1534C41.5216 60.2109 41.9817 60.5559 42.183 60.9585Z" />
<path d="M28.6107 57.278C28.5245 57.4792 28.4957 61.7923 28.5245 66.853L28.6107 76.0543H30.911H33.2114V66.5655V57.0767L30.9685 56.9904C29.3583 56.9329 28.697 57.0192 28.6107 57.278Z" />
<path d="M49.3712 57.1054C49.2562 57.2204 49.1699 61.5623 49.1699 66.7667V76.2268L53.4255 76.1405L57.6523 76.0543L57.7386 74.5303C57.8536 72.4888 57.5373 72.1725 55.467 72.1725H53.7706L53.7131 64.6102L53.6268 57.0766L51.614 56.9904C50.4926 56.9616 49.4862 56.9904 49.3712 57.1054Z" />
</svg>
