<svg width="151" height="36" viewBox="0 0 151 36" fill="currentColor" xmlns="http://www.w3.org/2000/svg">
<path fill-rule="evenodd" clip-rule="evenodd" d="M150.005 16.4V17.1C150.005 17.1 149.205 17.4 149.205 18.4V34.2C149.205 34.8 148.705 35.2 148.205 35.2H145.105L138.305 24.4C138.305 24.4 138.405 25.3 138.405 26.4V35.2H134.605V16.4H137.105C138.405 16.4 139.305 16.9 139.905 17.9L145.605 26.9C145.605 26.9 145.405 26.3 145.405 24.9V16.4H150.005ZM77.2047 16.4V34.2C77.2047 34.8 76.7047 35.2 76.2047 35.2H73.0047L66.2047 24.4C66.2047 24.4 66.3047 25.3 66.3047 26.4V35.2H62.5047V16.4H65.0047C66.3047 16.4 67.2047 16.9 67.8047 17.9L73.5047 26.9C73.5047 26.9 73.3047 26.3 73.3047 24.9V16.4C73.4047 16.4 77.2047 16.4 77.2047 16.4ZM30.2047 16.4H25.1047V23.6H20.7047V16.4H14.8047V17.1C14.8047 17.1 15.6047 17.4 15.6047 18.4V35.2H20.7047V27.1H25.1047V35.2H30.2047V16.4ZM46.7047 16.4H35.4047V33.5C35.4047 34.5 36.3047 35.2 37.3047 35.2H46.7047C47.3047 35.2 47.7047 34.7 47.7047 34.2V31.8H41.2047C40.8047 31.8 40.4047 31.5 40.4047 31V27H46.2047V23.6H40.4047V19.8H47.6047V17.4C47.7047 16.9 47.2047 16.4 46.7047 16.4ZM57.4047 16.4H52.3047V34.2C52.3047 34.8 52.8047 35.2 53.3047 35.2H57.4047V16.4ZM129.305 16.4H118.005V33.5C118.005 34.4 118.905 35.2 119.905 35.2H129.305C129.905 35.2 130.305 34.7 130.305 34.2V31.8H123.805C123.405 31.8 123.005 31.5 123.005 31V27H128.805V23.6H123.005V19.8H130.205V17.4C130.305 16.9 129.805 16.4 129.305 16.4ZM93.6047 16.4H82.3047V33.5C82.3047 34.4 83.2047 35.2 84.2047 35.2H93.6047C94.2047 35.2 94.6047 34.7 94.6047 34.2V31.8H88.1047C87.7047 31.8 87.3047 31.5 87.3047 31V27H93.1047V23.6H87.3047V19.8H94.5047V17.4C94.6047 16.9 94.1047 16.4 93.6047 16.4ZM115.005 16.4H111.305C110.405 16.4 109.705 16.6 109.005 17.4L103.805 23.3V16.3H98.7047V34.1C98.7047 34.7 99.2047 35.1 99.7047 35.1H103.805V26.6L108.305 33.6C109.005 34.6 109.605 35.2 111.205 35.2H115.405L108.305 24.1L115.005 16.4Z"/>
<path fill-rule="evenodd" clip-rule="evenodd" d="M5.00405 23.4C4.90405 23.5 4.70405 23.5 4.60405 23.3C4.50405 23.2 4.50405 23.1 4.60405 23C4.70405 22.6 7.30405 14.5 7.30405 14.5L0.104052 9.3C-0.0959482 9.1 0.00405183 8.7 0.304052 8.7C0.704052 8.7 9.10405 8.7 9.10405 8.7C9.10405 8.7 11.7041 0.6 11.8041 0.2C11.9041 0.1 12.0041 0 12.2041 0C12.3041 0 12.4041 0.1 12.4041 0.2C12.5041 0.6 15.1041 8.7 15.1041 8.7C15.1041 8.7 23.4041 8.7 23.9041 8.7C24.2041 8.7 24.3041 9.1 24.1041 9.3L19.9041 12.4H14.9041L13.4041 7.6L11.9041 12.4H6.90405L11.0041 15.4L9.50405 20.2L5.00405 23.4Z"/>
</svg>
