<svg width="123" height="123" viewBox="0 0 123 123" fill="currentColor" xmlns="http://www.w3.org/2000/svg">
<path d="M20.0282 0.414635C17.4543 1.04784 13.8112 3.22446 11.4352 5.51981C6.1289 10.7041 4.54494 18.5796 7.31688 25.9405C7.87127 27.4444 8.50486 28.8295 8.66325 28.9878C8.86125 29.1857 8.06927 31.1249 6.92089 33.3411C-3.5333 53.4056 -2.06813 77.309 10.8016 96.3446C13.9695 101.014 22.0478 109.088 26.7205 112.254C43.0354 123.256 62.6766 125.947 81.4466 119.694C83.6246 118.942 86.8717 117.636 88.6537 116.765C119.581 101.212 131.777 64.4471 116.294 33.6181L114.195 29.4627L115.146 27.3652C115.66 26.2571 116.334 23.9222 116.69 22.2601C118.63 12.9203 113.007 3.62022 103.781 0.770813C100.771 -0.178993 96.1775 -0.258141 93.0492 0.572937C90.7128 1.20614 86.1985 3.34319 85.4857 4.17426C85.1689 4.57001 84.5353 4.49087 82.4366 3.69936C70.1608 -0.930916 54.9943 -1.08922 41.9662 3.26404L38.1647 4.53044L36.0263 3.22446C32.1852 0.929108 29.8884 0.256332 25.5325 0.137611C23.3546 0.0584564 20.8994 0.177185 20.0282 0.414635ZM29.2548 7.1424C30.2052 7.57772 30.918 7.97347 30.8388 8.05262C30.7596 8.13177 28.9776 9.31902 26.9185 10.7041C24.5425 12.2871 21.335 14.9783 18.2463 18.0651C15.5139 20.7562 13.2568 22.9328 13.2172 22.9328C13.1776 22.9328 12.94 22.3788 12.7024 21.706C11.5144 18.263 12.742 13.0787 15.3951 10.348C19.4342 6.23217 24.4633 5.04491 29.2548 7.1424ZM103.543 7.37984C107.701 9.39817 110.433 13.2765 110.79 17.5902C110.908 19.2524 110.75 20.4396 110.314 21.5081L109.681 23.0516L106.473 19.6481C102.989 15.9281 98.9495 12.485 94.8707 9.87307C93.4452 8.92327 92.2572 8.13177 92.2572 8.05262C92.2572 7.73602 94.9499 6.54877 96.2171 6.27174C98.3159 5.83642 101.325 6.27174 103.543 7.37984ZM58.2019 15.9281C58.2019 23.0911 58.3207 25.7427 58.7167 26.2571C59.1126 26.8112 59.7066 26.8903 61.7658 26.8112L64.3397 26.6925L64.4585 16.4821C64.5773 5.16364 64.3001 6.03429 67.4285 6.54877L68.8937 6.82579V16.1655C68.8937 23.1703 69.0125 25.7427 69.4084 26.2571C69.8044 26.8112 70.3984 26.8903 72.4576 26.8112L75.0315 26.6925L75.1503 17.4319L75.2295 8.17135L76.6155 8.4088C78.7143 8.76497 84.9709 11.3373 88.4953 13.3161C102.553 21.2707 112.176 34.37 115.66 50.3584C116.809 55.7406 117.046 63.616 116.254 69.2356C115.858 71.7289 115.423 73.9055 115.264 74.1034C115.106 74.2617 111.78 72.4412 107.899 70.0271C104.018 67.6526 100.731 65.6739 100.573 65.6739C99.7018 65.6739 97.1675 69.671 97.5239 70.5416C97.6427 70.8582 100.89 73.0744 104.731 75.4094C108.572 77.7839 112.096 80.0001 112.532 80.3562L113.364 80.9499L112.532 82.8099C112.057 83.8388 111.621 84.6699 111.502 84.6699C111.384 84.6699 107.661 82.4537 103.187 79.723C98.7515 76.9924 94.8707 74.8553 94.5935 74.974C93.9204 75.2115 91.8612 78.4962 91.8612 79.2877C91.8612 80.0792 92.6532 80.6333 100.89 85.6989C105.048 88.2712 108.493 90.4874 108.493 90.6062C108.493 90.7645 107.938 91.6351 107.265 92.5454C106.434 93.7326 105.919 94.1284 105.602 93.8513C104.375 92.9015 90.2772 84.3137 89.802 84.2346C89.5248 84.195 89.0892 84.195 88.8121 84.2346C88.1785 84.2742 86.3173 87.4797 86.3173 88.4691C86.3173 89.0627 88.3369 90.4874 94.2767 94.1679L102.276 99.1148L99.4246 101.727C96.2567 104.655 91.584 108.098 88.3765 109.84L86.2777 110.987L83.2682 109.404C79.625 107.505 73.4476 102.558 68.9333 98.0067L65.6069 94.6033L67.1909 92.7037C69.5272 89.8542 73.8832 83.918 77.5263 78.4962C79.8626 75.0928 80.7734 73.3515 80.7734 72.4808C80.7734 71.808 80.3378 69.5918 79.7834 67.5735C78.5955 63.2598 77.2095 55.8197 77.2095 53.9201C77.2095 52.6933 77.2491 52.6537 78.2391 53.0099C79.7438 53.6035 83.189 53.4848 85.2481 52.7724C87.8221 51.9018 90.7524 49.1711 91.8612 46.5987C92.6136 44.8574 92.7324 44.0263 92.574 41.0582C92.376 36.9028 92.3364 36.9424 96.5735 38.9607C98.1575 39.7127 99.7018 40.3459 99.979 40.3459C100.296 40.3459 101.088 39.5148 101.801 38.5254C103.385 36.2301 103.068 35.399 100.098 33.6973C97.0883 31.9955 94.158 31.2436 90.4752 31.2436C82.3178 31.2436 74.4375 35.7156 72.022 41.731C71.1508 43.9472 71.0716 44.62 71.1112 51.0311C71.1112 57.0465 71.23 58.6295 72.1804 62.9036C72.7744 65.6343 73.3684 68.2463 73.4872 68.7212L73.7248 69.6314H61.6074C54.9547 69.6314 49.49 69.5127 49.49 69.3148C49.49 69.1565 50.0444 66.4654 50.7176 63.2994C52.7372 53.4848 52.7372 45.7281 50.678 40.8999C49.094 37.2986 43.5106 33.2224 38.1647 31.8372C34.8779 30.9666 29.928 31.0853 26.7997 32.0351C23.711 32.9849 20.4242 35.0824 20.2658 36.1905C20.147 37.1799 22.325 40.3459 23.1566 40.3459C23.4734 40.3459 24.7801 39.8314 26.0077 39.1586C27.2749 38.5254 28.8589 37.8526 29.5716 37.7339L30.8388 37.4965L30.4032 39.0003C29.4528 42.4829 30.6804 47.2715 33.1752 49.9626C35.6303 52.6141 40.9366 54.0784 44.4609 53.089C45.8073 52.6933 45.9261 52.7329 45.9261 53.5244C45.9261 55.424 44.6193 62.2309 43.3522 67.1382C42.2434 71.2936 42.0454 72.5995 42.3622 73.4306C42.9562 74.974 48.6981 83.4035 52.8164 88.7461C54.7963 91.3185 56.6575 93.7722 56.9347 94.1284C57.3703 94.7616 56.9347 95.3156 53.1728 98.9565C48.3021 103.626 42.9166 107.821 39.313 109.681L36.8579 110.948L35.1551 110.038C31.3536 107.94 26.7601 104.655 23.9089 101.964L20.8598 99.0752L28.5025 94.3262C32.7 91.7539 36.3431 89.3002 36.5411 88.944C37.2539 87.8359 34.6007 83.6014 33.4524 84.0367C33.1356 84.1554 29.3736 86.4112 25.0573 89.0627C20.741 91.7143 17.1375 93.9305 17.0187 93.9701C16.7019 94.1679 14.9595 91.556 14.8803 90.8041C14.8803 90.4083 17.6523 88.4691 22.7606 85.3031C27.1165 82.612 30.8388 80.1188 31.0368 79.8022C31.4724 79.1294 29.6904 75.8051 28.5421 75.1719C27.9481 74.8553 26.3245 75.726 19.8302 79.723C15.4347 82.4537 11.6728 84.6699 11.5144 84.6699C11.0788 84.6699 9.77203 81.2269 10.0492 80.752C10.168 80.5541 13.6528 78.3379 17.7711 75.8051C21.8894 73.2723 25.3741 70.9374 25.4929 70.5812C25.7701 69.8293 23.9485 66.6237 22.9586 66.0696C22.2458 65.6739 21.9686 65.8322 11.752 72.0851C9.61364 73.391 7.83167 74.42 7.75247 74.3408C7.67327 74.2617 7.27728 72.3225 6.92089 70.0667C6.01011 64.7637 6.2873 54.8303 7.43568 49.8439C11.9896 30.4125 25.5721 15.374 44.2629 9.042L47.5101 7.9339V16.7591C47.5101 23.2494 47.6289 25.7427 48.0249 26.2571C48.4209 26.8112 49.0149 26.8903 51.074 26.8112L53.648 26.6925L53.7668 16.7196L53.846 6.74664L54.9547 6.58834C55.5487 6.50919 56.4991 6.39046 57.1327 6.35089L58.2019 6.31132V15.9281ZM40.501 39.3961C42.9562 40.6229 45.5301 43.6306 45.5301 45.2532C45.5301 46.8362 41.0158 47.6277 38.7983 46.48C36.6599 45.3719 35.8283 42.2059 36.8579 39.2378C37.3331 37.8922 37.5311 37.9318 40.501 39.3961ZM86.3173 40.4646C86.7133 42.2059 86.7133 42.7995 86.1985 44.0263C85.0501 46.7174 81.209 47.9443 78.3975 46.48C77.3283 45.9259 77.2887 45.8072 77.6847 44.62C78.4371 42.4038 79.823 40.9395 82.595 39.4752C84.0997 38.6837 85.4461 38.1297 85.6045 38.2088C85.7233 38.288 86.0797 39.3169 86.3173 40.4646ZM71.032 77.0319C69.052 80.0792 64.3397 86.4508 61.7262 89.5376C61.4094 89.973 51.47 77.0715 51.47 76.2009C51.47 76.0821 56.0239 75.9634 61.6074 75.9634H71.7448L71.032 77.0319ZM71.6656 108.969C73.408 110.354 75.6255 112.016 76.6155 112.649C78.6351 113.916 78.7539 114.153 77.5263 114.51C73.2496 115.736 68.7749 116.409 63.7458 116.607C57.4891 116.844 53.45 116.449 47.7477 115.064C44.3817 114.232 44.2629 114.153 45.1341 113.599C48.6585 111.225 53.1332 107.584 56.9743 103.824L61.4886 99.471L64.9733 102.914C66.9137 104.853 69.9232 107.544 71.6656 108.969Z" />
</svg>
