<?xml version="1.0" encoding="UTF-8"?>
<svg width="44px" height="49px" viewBox="0 0 44 49" version="1.1"
    xmlns="http://www.w3.org/2000/svg"
    xmlns:xlink="http://www.w3.org/1999/xlink">
    <!-- Generator: Sketch 60 (88103) - https://sketch.com -->
    <title>Logo</title>
    <desc>Created with Sketch.</desc>
    <g id="VD" stroke="none" stroke-width="1" fill="none" fill-rule="evenodd">
        <g id="Home" transform="translate(-82.000000, -134.000000)" fill="#B4A890">
            <g id="Combined-header" transform="translate(82.000000, -49.000000)">
                <g id="Logo" transform="translate(0.000000, 183.000000)">
                    <g id="Fill-1">
                        <path d="M27.302385,15.0652 C28.589985,15.0652 29.787985,14.3184 30.355185,13.1628 L33.943585,5.744 C34.297185,4.7568 34.181185,3.6828 33.623985,2.7944 C32.997585,1.796 31.921585,1.2 30.744385,1.2 L29.499585,1.2 L22.816785,15.0652 L27.302385,15.0652 Z M6.19478503,30.6052 C6.25558503,30.6052 6.31478503,30.5988 6.37398503,30.5932 L6.46598503,30.5848 C6.90198503,30.5344 7.76398503,30.35 8.49478503,29.6956 C8.56078503,29.6356 8.62838503,29.5732 8.69198503,29.5052 L8.78318503,29.4 C8.85038503,29.3212 8.91558503,29.2372 8.97718503,29.15 L9.04638503,29.0512 C9.13558503,28.9144 9.20718503,28.7888 9.26398503,28.6692 L21.143185,3.752 C21.199985,3.6356 21.247985,3.5208 21.290785,3.4048 C21.298385,3.3828 21.342785,3.2348 21.343185,3.2332 C21.362385,3.174 21.381985,3.1148 21.396785,3.0544 C21.405185,3.0196 21.411185,2.9832 21.417985,2.9468 L21.442785,2.8176 C21.450385,2.7772 21.458785,2.7372 21.464385,2.6968 C21.470785,2.6488 21.473985,2.5996 21.477185,2.5508 L21.485985,2.4424 C21.489185,2.4076 21.492385,2.3728 21.493185,2.338 C21.494785,2.2832 21.492785,2.2308 21.491185,2.1784 C21.491185,2.1784 21.486385,2.0064 21.483985,1.9728 C21.479185,1.916 21.470785,1.8568 21.461985,1.7972 L21.451985,1.724 C21.447185,1.6868 21.442785,1.6496 21.435585,1.6128 C21.425185,1.556 21.410385,1.4988 21.395585,1.4416 C21.395585,1.4408 21.380785,1.3816 21.380385,1.3804 C21.370385,1.3388 21.360785,1.2968 21.347985,1.2556 C21.342385,1.2368 21.336385,1.2184 21.329985,1.2 L14.775185,1.2 C14.992385,2.1436 14.907585,3.1324 14.524385,4.0372 L1.67558503,30.6052 L6.19478503,30.6052 Z M11.781185,30.6052 C13.071185,30.6052 14.269985,29.8568 14.835985,28.698 L28.165185,1.2 L22.573185,1.2 C22.575985,1.2132 22.578785,1.226 22.581585,1.2392 C22.595185,1.2988 22.607585,1.3592 22.618385,1.42 C22.636785,1.5228 22.651585,1.6232 22.662785,1.7244 C22.669985,1.788 22.676385,1.8456 22.679985,1.904 C22.687985,2.006 22.691185,2.1084 22.691985,2.2116 C22.692385,2.2848 22.692785,2.338 22.690785,2.3912 C22.687985,2.4924 22.678785,2.5956 22.668785,2.6992 L22.663985,2.7464 C22.660385,2.7892 22.656385,2.832 22.649985,2.8748 C22.635585,2.9792 22.615185,3.0824 22.593585,3.186 L22.583185,3.2368 C22.575585,3.276 22.567585,3.3156 22.557985,3.3552 C22.531185,3.4624 22.496785,3.5708 22.460785,3.6784 L22.448385,3.72 C22.438385,3.7548 22.427585,3.7892 22.415185,3.8232 C22.359985,3.9748 22.295585,4.1264 22.223585,4.2744 L10.357185,29.168 C10.277185,29.3352 10.182785,29.5012 10.059985,29.6912 C10.030385,29.7372 9.99878503,29.7824 9.96678503,29.828 C9.88198503,29.948 9.80078503,30.0524 9.71598503,30.1512 C9.58118503,30.312 9.43478503,30.464 9.27878503,30.6052 L11.781185,30.6052 Z M18.324385,24.2528 L17.597985,25.75 C17.125985,26.7944 17.210785,28.0136 17.830785,29.002 C18.460785,30.006 19.531985,30.6052 20.696785,30.6052 L22.995985,30.6052 C22.829185,29.8724 22.836385,29.0944 23.021185,28.3644 L23.046385,28.2888 C23.051185,28.2756 23.056785,28.2632 23.062385,28.2508 L27.879185,18.274 C28.090385,17.8376 28.061985,17.3316 27.804785,16.9208 C27.546785,16.5104 27.103585,16.2652 26.618785,16.2652 L22.235985,16.2652 L18.324385,24.2528 Z M28.975585,30.6052 C28.787985,29.7156 28.853985,28.7664 29.170385,27.9308 C29.174385,27.92 29.185585,27.8948 29.190385,27.8848 L41.931185,1.2 L36.375985,1.2 C36.567185,2.034 36.524385,2.9148 36.245185,3.7316 C36.240385,3.7468 36.233985,3.762 36.227185,3.7764 L35.038385,6.2344 C35.001985,6.338 34.950385,6.4748 34.885585,6.6084 L31.445585,13.6632 C31.345985,13.8668 31.244785,14.0408 31.123185,14.2224 C31.095585,14.2624 31.067185,14.2996 31.038385,14.3364 L31.002385,14.3832 C30.921985,14.4924 30.839585,14.6004 30.749185,14.702 C30.710385,14.7464 30.669185,14.7876 30.627585,14.8292 L30.585585,14.8716 C30.498385,14.96 30.411185,15.0456 30.319185,15.1256 C30.258385,15.1788 30.195185,15.228 30.132385,15.2772 C30.031585,15.3556 29.936785,15.4244 29.838385,15.49 C29.766785,15.5372 29.695585,15.5816 29.623185,15.624 C29.521585,15.6836 29.417185,15.7388 29.310785,15.7908 C29.221185,15.8344 29.154385,15.8664 29.084785,15.896 C28.971585,15.944 28.856785,15.9844 28.740385,16.0232 C28.740385,16.0232 28.665985,16.0484 28.654785,16.0524 C28.719585,16.1324 28.773585,16.2076 28.820785,16.2832 C29.299585,17.0456 29.351585,17.9848 28.959985,18.796 L24.173585,28.7088 C24.170385,28.724 24.130785,28.9152 24.125985,28.946 L24.111585,29.0616 C24.102785,29.13 24.096385,29.178 24.092385,29.2264 C24.089185,29.2668 24.083185,29.4384 24.083185,29.4384 L24.081185,29.5008 C24.080785,29.5736 24.083985,29.6452 24.087585,29.716 L23.691185,29.8092 L24.089985,29.7804 C24.095585,29.8596 24.104385,29.9384 24.114385,30.0168 L23.724385,30.1196 L24.119985,30.062 C24.131185,30.1392 24.145185,30.2156 24.161585,30.292 L23.782385,30.4336 L24.172785,30.3464 C24.188385,30.4152 24.206385,30.4828 24.225985,30.55 L24.242385,30.6052 L28.975585,30.6052 Z M20.696785,31.8052 C19.116385,31.8052 17.664785,30.9956 16.813985,29.6396 C16.582385,29.27 16.405585,28.8732 16.285185,28.4588 L15.914785,29.2228 C15.148385,30.792 13.525985,31.8052 11.781185,31.8052 L0.399985033,31.8052 C0.261985033,31.8052 0.134385033,31.7344 0.0607850332,31.6176 C-0.0120149668,31.5012 -0.0200149668,31.3552 0.0399850332,31.2312 L13.431585,3.542 C13.790385,2.6936 13.780785,1.704 13.397185,0.8448 L13.271585,0.5632 C13.216385,0.4396 13.227185,0.2964 13.301185,0.1824 C13.375185,0.0688 13.501185,0 13.636785,0 L30.744385,0 C32.336785,0 33.793585,0.8064 34.640385,2.1568 C34.855985,2.5 35.023585,2.8692 35.140785,3.2548 C35.390385,2.4656 35.339985,1.6128 34.996785,0.8452 L34.871585,0.5628 C34.816385,0.4392 34.827185,0.296 34.901185,0.1824 C34.975185,0.0688 35.101185,0 35.236785,0 L43.199985,0 C43.337585,0 43.465185,0.0708 43.538385,0.1868 C43.611585,0.3028 43.620385,0.4484 43.560785,0.5724 L30.276785,28.394 C29.980385,29.186 29.999185,30.1616 30.340385,30.9728 L30.457185,31.25 C30.509185,31.3736 30.495585,31.5152 30.421585,31.6264 C30.347185,31.738 30.222385,31.8052 30.088385,31.8052 L20.696785,31.8052 Z"></path>
                    </g>
                </g>
            </g>
        </g>
    </g>
</svg>