<svg xmlns="http://www.w3.org/2000/svg" width="31.680" height="23.109" viewBox="0 0 31.680 23.109" fill="none">
  <path d="M 22.339 0 C 23.496 0 24.555 0.586 25.17 1.567 C 25.326 1.817 25.448 2.085 25.533 2.365 C 25.714 1.792 25.678 1.172 25.429 0.614 L 25.338 0.409 C 25.298 0.319 25.306 0.215 25.359 0.133 C 25.413 0.05 25.504 0 25.602 0 L 31.389 0 C 31.489 0 31.582 0.051 31.635 0.136 C 31.688 0.22 31.695 0.326 31.651 0.416 L 21.999 20.631 C 21.784 21.206 21.797 21.915 22.045 22.505 L 22.13 22.706 C 22.168 22.796 22.158 22.899 22.104 22.979 C 22.05 23.061 21.96 23.109 21.862 23.109 L 15.038 23.109 C 13.89 23.109 12.835 22.521 12.217 21.536 C 12.048 21.268 11.92 20.979 11.833 20.678 L 11.563 21.233 C 11.007 22.373 9.828 23.109 8.56 23.109 L 0.291 23.109 C 0.191 23.109 0.097 23.058 0.044 22.974 C -0.009 22.889 -0.014 22.782 0.029 22.692 L 9.76 2.573 C 10.02 1.957 10.013 1.238 9.734 0.614 L 9.643 0.409 C 9.603 0.319 9.611 0.216 9.665 0.133 C 9.719 0.05 9.81 0 9.908 0 L 22.339 0 Z M 10.735 0.872 C 10.893 1.558 10.832 2.276 10.554 2.934 L 1.218 22.237 L 4.501 22.237 C 4.545 22.237 4.589 22.233 4.632 22.229 L 4.698 22.223 C 5.015 22.186 5.642 22.052 6.173 21.576 C 6.221 21.533 6.269 21.488 6.315 21.438 L 6.382 21.361 C 6.431 21.304 6.478 21.243 6.522 21.18 L 6.573 21.108 C 6.638 21.009 6.69 20.918 6.731 20.831 L 15.362 2.727 C 15.404 2.642 15.439 2.558 15.47 2.474 C 15.475 2.457 15.508 2.349 15.508 2.349 C 15.522 2.306 15.536 2.263 15.547 2.219 C 15.553 2.194 15.558 2.167 15.562 2.141 L 15.58 2.047 C 15.586 2.018 15.592 1.988 15.596 1.959 C 15.6 1.924 15.603 1.889 15.605 1.854 L 15.611 1.774 C 15.614 1.749 15.617 1.724 15.617 1.698 C 15.618 1.659 15.616 1.621 15.615 1.583 C 15.615 1.583 15.612 1.459 15.61 1.434 C 15.607 1.392 15.601 1.349 15.595 1.306 L 15.587 1.253 C 15.583 1.226 15.58 1.199 15.575 1.172 C 15.568 1.131 15.557 1.088 15.546 1.047 L 15.535 1.003 C 15.528 0.973 15.521 0.942 15.512 0.912 C 15.508 0.898 15.503 0.885 15.498 0.872 L 10.735 0.872 Z M 16.408 0.9 C 16.418 0.944 16.428 0.987 16.435 1.031 C 16.449 1.106 16.46 1.179 16.468 1.253 C 16.473 1.299 16.478 1.341 16.48 1.384 C 16.486 1.458 16.488 1.532 16.488 1.606 C 16.489 1.66 16.49 1.699 16.488 1.737 C 16.486 1.811 16.479 1.886 16.472 1.961 L 16.469 1.995 C 16.466 2.026 16.463 2.058 16.458 2.089 C 16.448 2.165 16.433 2.239 16.417 2.314 L 16.41 2.352 C 16.405 2.38 16.398 2.409 16.392 2.438 C 16.372 2.515 16.346 2.595 16.32 2.673 L 16.311 2.703 C 16.304 2.728 16.297 2.753 16.288 2.777 C 16.248 2.887 16.201 2.998 16.148 3.105 L 7.526 21.193 C 7.468 21.315 7.4 21.435 7.31 21.573 C 7.289 21.607 7.265 21.64 7.242 21.673 C 7.181 21.76 7.122 21.836 7.06 21.907 C 6.963 22.024 6.856 22.135 6.743 22.237 L 8.56 22.237 C 9.498 22.237 10.369 21.694 10.78 20.852 L 20.466 0.872 L 16.402 0.872 C 16.404 0.882 16.406 0.891 16.408 0.9 Z M 13.314 17.622 L 12.786 18.71 C 12.443 19.469 12.505 20.354 12.955 21.072 C 13.413 21.802 14.192 22.237 15.038 22.237 L 16.709 22.237 C 16.588 21.705 16.592 21.14 16.727 20.609 L 16.745 20.555 C 16.749 20.545 16.753 20.535 16.757 20.526 L 20.257 13.277 C 20.41 12.96 20.389 12.593 20.202 12.295 C 20.015 11.997 19.693 11.818 19.341 11.818 L 16.156 11.818 L 13.314 17.622 Z M 26.43 0.872 C 26.568 1.478 26.538 2.118 26.335 2.711 C 26.331 2.722 26.327 2.734 26.322 2.744 L 25.458 4.529 C 25.432 4.605 25.394 4.705 25.347 4.802 L 22.848 9.928 C 22.775 10.076 22.702 10.202 22.613 10.334 C 22.593 10.363 22.573 10.39 22.552 10.417 L 22.525 10.45 C 22.467 10.53 22.407 10.609 22.342 10.683 C 22.314 10.715 22.283 10.744 22.253 10.774 L 22.223 10.806 C 22.159 10.87 22.096 10.932 22.029 10.99 C 21.985 11.029 21.939 11.065 21.894 11.101 C 21.82 11.158 21.751 11.207 21.68 11.255 C 21.628 11.289 21.576 11.322 21.523 11.353 C 21.45 11.396 21.374 11.436 21.297 11.474 C 21.232 11.505 21.182 11.528 21.132 11.55 C 21.05 11.585 20.966 11.614 20.882 11.643 C 20.878 11.644 20.827 11.66 20.819 11.663 C 20.866 11.721 20.906 11.776 20.94 11.831 C 21.288 12.385 21.326 13.068 21.042 13.657 L 17.563 20.859 C 17.561 20.87 17.533 21.01 17.529 21.032 L 17.519 21.116 C 17.512 21.166 17.508 21.2 17.505 21.235 C 17.503 21.26 17.499 21.352 17.498 21.381 C 17.495 21.775 17.574 22.101 17.623 22.237 L 21.053 22.237 C 20.916 21.591 20.964 20.901 21.194 20.294 C 21.197 20.286 21.205 20.268 21.209 20.261 L 30.467 0.872 L 26.43 0.872 Z M 16.577 10.946 L 19.837 10.946 C 20.772 10.946 21.643 10.403 22.055 9.563 L 24.662 4.174 C 24.919 3.457 24.834 2.676 24.43 2.03 C 23.975 1.305 23.193 0.872 22.338 0.872 L 21.434 0.872 L 16.577 10.946 Z" fill="currentColor" fill-rule="evenodd"/>
</svg>
