<svg width="48" height="36" viewBox="0 0 48 36" fill="none" xmlns="http://www.w3.org/2000/svg">
<path fill-rule="evenodd" clip-rule="evenodd" d="M30.0581 16.5847C31.4756 16.5847 32.7945 15.7626 33.4189 14.4903L37.3695 6.32287C37.7587 5.23605 37.631 4.05367 37.0176 3.07561C36.328 1.97646 35.1434 1.32031 33.8474 1.32031H32.477L25.1198 16.5847H30.0581ZM6.81901 33.693C6.88594 33.693 6.95112 33.6859 7.01629 33.6797L7.11758 33.6705C7.59758 33.615 8.54657 33.412 9.35112 32.6916C9.42378 32.6255 9.4982 32.5568 9.56822 32.482L9.66862 32.3661C9.7426 32.2794 9.81438 32.1869 9.8822 32.0909L9.95838 31.9821C10.0566 31.8315 10.1354 31.6933 10.1979 31.5616L23.2759 4.12985C23.3385 4.0017 23.3913 3.87532 23.4384 3.74761C23.4468 3.72339 23.4957 3.56046 23.4961 3.55869C23.5173 3.49352 23.5388 3.42835 23.5551 3.36185C23.5644 3.32354 23.571 3.28347 23.5785 3.24339L23.6058 3.10115C23.6141 3.05668 23.6234 3.01264 23.6296 2.96816C23.6366 2.91532 23.6401 2.86115 23.6436 2.80743L23.6533 2.68809C23.6569 2.64978 23.6604 2.61147 23.6613 2.57315C23.663 2.51282 23.6608 2.45514 23.6591 2.39745C23.6591 2.39745 23.6538 2.20809 23.6511 2.1711C23.6458 2.10857 23.6366 2.04339 23.6269 1.97778L23.6159 1.89719C23.6106 1.85624 23.6058 1.81528 23.5978 1.77477C23.5864 1.71224 23.5701 1.64927 23.5538 1.58629C23.5538 1.58541 23.5375 1.52024 23.5371 1.51892C23.5261 1.47312 23.5155 1.42688 23.5014 1.38152C23.4952 1.36083 23.4886 1.34057 23.4816 1.32031H16.2653C16.5044 2.35914 16.4111 3.44772 15.9892 4.44383L1.84375 33.693H6.81901ZM12.9685 33.693C14.3887 33.693 15.7084 32.869 16.3316 31.5933L31.0059 1.32031H24.8496C24.8526 1.33484 24.8557 1.34894 24.8588 1.36347C24.8738 1.42908 24.8874 1.49558 24.8993 1.56251C24.9196 1.67569 24.9359 1.78622 24.9482 1.89763C24.9561 1.96765 24.9632 2.03106 24.9671 2.09536C24.9759 2.20765 24.9795 2.32038 24.9803 2.434C24.9808 2.51459 24.9812 2.57315 24.979 2.63172C24.9759 2.74314 24.9658 2.85675 24.9548 2.97081L24.9495 3.02277C24.9456 3.06989 24.9412 3.11701 24.9341 3.16413C24.9183 3.27906 24.8958 3.39268 24.872 3.50673L24.8606 3.56266C24.8522 3.60581 24.8434 3.64941 24.8328 3.69301C24.8033 3.81102 24.7654 3.93036 24.7258 4.04882L24.7122 4.09462C24.7012 4.13293 24.6893 4.1708 24.6756 4.20823C24.6148 4.37513 24.5439 4.54203 24.4647 4.70497L11.4008 32.1107C11.3127 32.2948 11.2088 32.4776 11.0736 32.6867C11.041 32.7374 11.0062 32.7871 10.971 32.8373C10.8776 32.9694 10.7882 33.0844 10.6949 33.1931C10.5465 33.3702 10.3853 33.5375 10.2135 33.693H12.9685ZM20.1736 26.6999L19.3739 28.3482C18.8542 29.498 18.9476 30.8402 19.6302 31.9284C20.3237 33.0337 21.503 33.6934 22.7854 33.6934H25.3166C25.133 32.8866 25.1409 32.0301 25.3444 31.2264L25.3721 31.1432C25.3774 31.1287 25.3835 31.115 25.3897 31.1014L30.6926 20.1178C30.9251 19.6373 30.8939 19.0803 30.6107 18.628C30.3267 18.1762 29.8387 17.9062 29.305 17.9062H24.4799L20.1736 26.6999ZM31.8984 33.693C31.6919 32.7136 31.7645 31.6686 32.1129 30.7487C32.1173 30.7368 32.1296 30.709 32.1349 30.698L46.1614 1.32031H40.0456C40.2561 2.23848 40.209 3.20816 39.9016 4.10739C39.8963 4.12413 39.8893 4.14086 39.8818 4.15671L38.573 6.86276C38.533 6.97682 38.4762 7.12742 38.4048 7.27451L34.6177 15.0412C34.508 15.2654 34.3966 15.457 34.2627 15.6569C34.2324 15.7009 34.2011 15.7419 34.1694 15.7824L34.1297 15.8339C34.0412 15.9541 33.9505 16.073 33.851 16.1849C33.8083 16.2338 33.7629 16.2791 33.7171 16.3249L33.6709 16.3716C33.5749 16.4689 33.4789 16.5632 33.3776 16.6512C33.3107 16.7098 33.2411 16.764 33.1719 16.8181C33.061 16.9044 32.9566 16.9802 32.8483 17.0524C32.7695 17.1044 32.6911 17.1532 32.6114 17.1999C32.4995 17.2655 32.3846 17.3263 32.2674 17.3836C32.1688 17.4316 32.0953 17.4668 32.0186 17.4994C31.894 17.5522 31.7676 17.5967 31.6395 17.6394C31.6395 17.6394 31.5576 17.6672 31.5452 17.6716C31.6166 17.7596 31.676 17.8424 31.728 17.9256C32.2551 18.765 32.3124 19.799 31.8812 20.692L26.6118 31.6052C26.6083 31.6219 26.5647 31.8324 26.5594 31.8663L26.5436 31.9936C26.5339 32.0689 26.5268 32.1217 26.5224 32.175C26.5189 32.2195 26.5123 32.4084 26.5123 32.4084L26.5101 32.4771C26.5096 32.5573 26.5132 32.6361 26.5171 32.714L26.0807 32.8166L26.5198 32.7849C26.5259 32.8721 26.5356 32.9589 26.5466 33.0452L26.1173 33.1584L26.5528 33.0949C26.5651 33.1799 26.5805 33.264 26.5986 33.3482L26.1811 33.504L26.6109 33.408C26.6281 33.4838 26.6479 33.5582 26.6695 33.6322L26.6876 33.693H31.8984ZM22.7854 35.0148C21.0455 35.0148 19.4474 34.1235 18.5108 32.6307C18.2558 32.2238 18.0612 31.787 17.9286 31.3307L17.5208 32.1718C16.6771 33.8994 14.891 35.0148 12.9701 35.0148H0.44035C0.288423 35.0148 0.147947 34.9369 0.0669192 34.8083C-0.0132275 34.6802 -0.0220348 34.5194 0.0440201 34.3829L14.787 3.89944C15.1821 2.96543 15.1715 1.87596 14.7492 0.930054L14.6109 0.620036C14.5501 0.483963 14.562 0.326311 14.6435 0.200807C14.725 0.075743 14.8637 0 15.013 0H33.847C35.6001 0 37.2039 0.887779 38.1361 2.37446C38.3735 2.75229 38.558 3.15875 38.687 3.58326C38.9618 2.71442 38.9063 1.77556 38.5285 0.930494L38.3907 0.619595C38.3299 0.483522 38.3418 0.325871 38.4233 0.200807C38.5047 0.075743 38.6434 0 38.7927 0H47.5595C47.711 0 47.8515 0.0779448 47.9321 0.205651C48.0127 0.333357 48.0224 0.493651 47.9567 0.630164L33.3322 31.2594C33.0059 32.1313 33.0266 33.2054 33.4022 34.0984L33.5308 34.4036C33.588 34.5397 33.5731 34.6956 33.4916 34.818C33.4097 34.9409 33.2723 35.0148 33.1248 35.0148H22.7854Z" fill="#1D1C1B"/>
</svg>
