<svg width="120" height="80" viewBox="0 0 120 80" fill="none" xmlns="http://www.w3.org/2000/svg">
  <!-- Controller body -->
  <path d="M30 25C20 25 15 30 15 40V50C15 60 20 65 30 65H35L45 75H75L85 65H90C100 65 105 60 105 50V40C105 30 100 25 90 25H30Z" fill="#1E1E1E" stroke="#B4A890" stroke-width="1"/>
  
  <!-- D-pad -->
  <rect x="25" y="32" width="12" height="4" rx="2" fill="#B4A890"/>
  <rect x="29" y="28" width="4" height="12" rx="2" fill="#B4A890"/>
  
  <!-- Action buttons -->
  <circle cx="85" cy="35" r="4" fill="#B4A890"/>
  <circle cx="95" cy="30" r="4" fill="#B4A890"/>
  <circle cx="95" cy="40" r="4" fill="#B4A890"/>
  <circle cx="105" cy="35" r="4" fill="#B4A890"/>
  
  <!-- Analog sticks -->
  <circle cx="45" cy="50" r="8" fill="#2A2A2A" stroke="#B4A890" stroke-width="1"/>
  <circle cx="75" cy="50" r="8" fill="#2A2A2A" stroke="#B4A890" stroke-width="1"/>
  
  <!-- Center touchpad -->
  <rect x="50" y="25" width="20" height="12" rx="2" fill="#2A2A2A" stroke="#B4A890" stroke-width="1"/>
  
  <!-- PS button -->
  <circle cx="60" cy="45" r="3" fill="#EA401E"/>
  
  <!-- Shoulder buttons indication -->
  <rect x="20" y="20" width="8" height="4" rx="2" fill="#B4A890"/>
  <rect x="92" y="20" width="8" height="4" rx="2" fill="#B4A890"/>
</svg>