<svg width="131" height="65" viewBox="0 0 131 65" fill="currentColor" xmlns="http://www.w3.org/2000/svg"><path fill-rule="evenodd" clip-rule="evenodd" d="M65.5 65c36.175 0 65.5-14.55 65.5-32.5S101.675 0 65.5 0 0 14.55 0 32.5 29.325 65 65.5 65zM45.29 8.92c-9.606 4.04-19.188 12.963-24.318 18.992-.142.007-.363-.001-.65-.012-1.56-.057-5.111-.187-9.027 1.692.775-.139 5.198-.484 7.899.45-.86.867-8.702 11.202-10.489 15.239.613.034 2.925-.398 4.497-1.347 3.31-1.991 9.916-10.728 10.883-12.208.832.144 8.407 4.549 6.849 13.047 0 0 7.86-.033 7.862-.063.292-8.197 4.71-29.766 6.494-35.79zM32.742 32.926c-1.196-1.362-5.684-3.573-6.396-3.774 2.573-3.221 7.223-7.006 8.508-7.869-.423 1.669-1.94 10.125-2.112 11.643zm50.853 1.58c-1.604 4.377-3.178 8.487-3.983 10.108l-7.56.027c.787-1.485 6.879-17.085 8.924-23.812l7.455-.025-.084.26c-.48 1.478-1.78 5.485-3.366 9.898 2.24-1.387 9.875-8.595 10.94-10.184l7.487-.025c-.997 1.247-8.837 8.37-12.521 10.829.766 1.445 10.464 12.234 21.273 14.404-12.725 2.698-23.472-5.428-28.565-11.48zM69.171 20.87l7.63-.026c-.854 2.62-7.214 20.014-9.098 23.812l-7.904.027c.79-1.484 7.433-16.846 9.372-23.813zm-15.942.054l-7.42.027c-1.717 12.862-.678 23.716-.538 24.75 3.995-3.048 14.664-12.46 23.11-24.795l-6.04.02c-2.471 4.008-9.172 12.164-10.205 13.17-.366-2.346.511-8.845.933-11.964.067-.5.123-.913.16-1.208zm15.925-4.287c-.57-1.803 1.461-4.052 4.536-5.02 3.072-.966 6.03-.289 6.595 1.514.573 1.802-1.46 4.051-4.533 5.021-3.073.968-6.029.288-6.598-1.515zm30.608 16.843c.023 6.997 5.313 9.255 10.421 9.238 6.869-.024 13.133-6.561 13.111-13.11-.024-6.55-4.594-9.531-9.88-9.515-6.971.026-13.679 6.085-13.652 13.387zm13.664-9.696c1.28-.005 2.836.816 2.846 3.85.012 3.034-2.333 8.642-4.107 10.045-1.394 1.105-2.434.978-2.892.923a1.654 1.654 0 00-.174-.016c-.313 0-2.214-.44-2.223-3.06-.008-2.622 1.254-7.07 2.833-9.214 1.58-2.142 2.617-2.524 3.717-2.528zM125.918 10.546l.478.006.713 1.194.465.007-.766-1.215c.403-.046.715-.255.72-.742.008-.544-.311-.786-.959-.794l-1.049-.013-.036 2.739.419.005.015-1.187zm.004-.352l.01-.851.57.008c.289.002.597.07.593.412-.006.422-.321.443-.674.438l-.499-.007z"></path><path fill-rule="evenodd" clip-rule="evenodd" d="M126.5 12.5a2 2 0 100-4 2 2 0 000 4zm0 .5a2.5 2.5 0 100-5 2.5 2.5 0 000 5z"></path></svg>