<svg width="120" height="14" viewBox="0 0 120 14" fill="currentColor" xmlns="http://www.w3.org/2000/svg"><path d="M49.838.178c.404.934.404 1.541.404 2.198v9.198c0 .658 0 1.264-.404 2.199h3.082c-.43-.935-.405-1.541-.405-2.199V2.376c0-.657-.025-1.264.405-2.198h-3.082zm14.868 12.685h-2.627V1.138h2.248c4.117 0 5.76 3.621 5.835 5.9.075 2.255-.682 5.825-5.456 5.825zM65.16.178h-5.708c.404.934.354 1.542.354 2.2v9.22c0 1.012.025 1.265-.405 2.2h5.43c4.547 0 7.881-3.34 7.83-6.886-.075-4.205-3.51-6.734-7.501-6.734zm32.342 0c.43.934.404 1.541.404 2.198v9.198c0 1.01.026 1.264-.404 2.199h3.081c-.429-.935-.403-1.188-.403-2.199V6.9h4.773l.328-.96h-5.101V1.257h4.439c.556 0 .808-.025 2.425.581l-.682-1.66h-8.86zM84.787 12.863c-1.818.026-4.823-2.072-5.076-5.939-.152-2.274 1.213-5.711 5.076-5.685 1.82 0 4.8 2.02 5.052 5.863.152 2.3-1.06 5.686-5.052 5.761zm0-12.736c-4.344 0-7.526 3.487-7.526 7.075 0 4.019 3.485 6.773 7.552 6.723 4.345-.076 7.526-3.488 7.526-7.076 0-4.12-3.51-6.722-7.552-6.722zm28.991 13.646c-.429-.935-.405-1.188-.405-2.199V6.9h4.774l.329-.96h-5.103V1.257h4.202c.556 0 .808-.025 2.425.581l-.682-1.66h-8.621c.429.934.404 1.541.404 2.198v9.198c0 1.01.025 1.264-.404 2.199h3.081zM23.548 0h-.53l-4.95 11.752c-.404.96-.581 1.238-1.187 2.046h1.415l4.28-10.227 1.745 4.053-1.753-.002v1.233l2.279-.001 2.112 4.945h3.131c-.934-1.062-1.186-1.214-1.667-2.351l-1.105-2.596 4.188-.003.469-1.227-5.18.002L23.55 0zM5.305 12.863H2.678V1.138h2.248c4.117 0 5.758 3.621 5.834 5.9.076 2.255-.682 5.825-5.456 5.825zM5.76.178H.051c.404.934.353 1.542.353 2.2v9.22c0 1.012.026 1.265-.404 2.2h5.43c4.547 0 7.88-3.34 7.83-6.886C13.184 2.707 9.75.178 5.76.178zm33.867 10.209L35.282.202H32.15c.934 1.061 1.161 1.213 1.641 2.351L38.691 14h.53l4.952-11.776c.378-.934.58-1.238 1.186-2.022h-1.414l-4.32 10.185z"></path></svg>