<svg width="123" height="123" viewBox="0 0 123 123" fill="currentColor" xmlns="http://www.w3.org/2000/svg"><path d="M20.028.415c-2.574.633-6.217 2.81-8.593 5.105-5.306 5.184-6.89 13.06-4.118 20.42.554 1.504 1.188 2.89 1.346 3.048.198.198-.594 2.137-1.742 4.353C-3.533 53.406-2.07 77.31 10.8 96.345c3.168 4.669 11.247 12.743 15.92 15.909 16.314 11.002 35.956 13.693 54.726 7.44 2.178-.752 5.425-2.058 7.207-2.929 30.927-15.553 43.123-52.318 27.64-83.147l-2.099-4.155.951-2.098c.514-1.108 1.188-3.443 1.544-5.105 1.94-9.34-3.683-18.64-12.909-21.49-3.01-.949-7.604-1.028-10.732-.197-2.336.633-6.85 2.77-7.563 3.601-.317.396-.95.317-3.05-.475-12.275-4.63-27.442-4.788-40.47-.435L38.165 4.53l-2.139-1.306C32.186.93 29.888.256 25.532.138c-2.177-.08-4.633.04-5.504.277zm9.227 6.727c.95.436 1.663.831 1.584.91-.08.08-1.861 1.267-3.92 2.652-2.377 1.583-5.584 4.274-8.673 7.361-2.732 2.691-4.99 4.868-5.029 4.868-.04 0-.277-.554-.515-1.227-1.188-3.443.04-8.627 2.693-11.358 4.04-4.116 9.068-5.303 13.86-3.206zm74.288.238c4.158 2.018 6.89 5.897 7.247 10.21.118 1.662-.04 2.85-.476 3.918l-.633 1.544-3.208-3.404c-3.484-3.72-7.523-7.163-11.602-9.775-1.426-.95-2.614-1.741-2.614-1.82 0-.317 2.693-1.504 3.96-1.781 2.099-.436 5.108 0 7.326 1.108zm-45.341 8.548c0 7.163.119 9.815.515 10.33.396.553.99.632 3.049.553l2.574-.119.118-10.21c.12-11.318-.158-10.448 2.97-9.933l1.466.277v9.34c0 7.004.118 9.577.514 10.091.396.554.99.633 3.05.554l2.573-.119.12-9.26.079-9.26 1.385.237c2.1.356 8.356 2.928 11.88 4.907 14.058 7.955 23.681 21.054 27.165 37.042 1.149 5.383 1.386 13.258.594 18.878-.396 2.493-.831 4.67-.99 4.867-.158.159-3.484-1.662-7.365-4.076-3.881-2.374-7.168-4.353-7.326-4.353-.871 0-3.405 3.997-3.05 4.868.12.316 3.367 2.532 7.208 4.867 3.841 2.375 7.365 4.591 7.801 4.947l.832.594-.832 1.86c-.475 1.029-.911 1.86-1.03 1.86-.118 0-3.841-2.216-8.315-4.947-4.436-2.73-8.316-4.868-8.593-4.749-.674.237-2.733 3.522-2.733 4.314 0 .791.792 1.345 9.029 6.41 4.158 2.573 7.603 4.79 7.603 4.908 0 .159-.555 1.03-1.228 1.94-.831 1.187-1.346 1.582-1.663 1.305-1.227-.95-15.325-9.537-15.8-9.616a4.139 4.139 0 00-.99 0c-.633.04-2.495 3.245-2.495 4.234 0 .594 2.02 2.018 7.96 5.699l7.999 4.947-2.851 2.612c-3.168 2.928-7.841 6.371-11.049 8.113l-2.098 1.147-3.01-1.583c-3.643-1.899-9.82-6.846-14.335-11.397l-3.326-3.404 1.584-1.9c2.336-2.849 6.692-8.785 10.335-14.207 2.337-3.403 3.247-5.144 3.247-6.015 0-.673-.435-2.89-.99-4.907C78.595 63.26 77.21 55.82 77.21 53.92c0-1.227.04-1.266 1.03-.91 1.504.593 4.949.475 7.008-.238 2.574-.87 5.504-3.6 6.613-6.173.753-1.742.871-2.573.713-5.54-.198-4.156-.238-4.117 4-2.098 1.584.752 3.128 1.385 3.405 1.385.317 0 1.109-.831 1.822-1.82 1.584-2.296 1.267-3.127-1.703-4.829-3.01-1.702-5.94-2.453-9.623-2.453-8.157 0-16.037 4.472-18.453 10.487-.871 2.216-.95 2.889-.91 9.3 0 6.016.118 7.599 1.068 11.873.594 2.73 1.188 5.342 1.307 5.817l.238.91H61.607c-6.652 0-12.117-.118-12.117-.316 0-.159.554-2.85 1.228-6.016 2.02-9.814 2.02-17.57-.04-22.4-1.584-3.6-7.167-7.677-12.513-9.062-3.287-.87-8.237-.752-11.365.198-3.089.95-6.376 3.047-6.534 4.156-.119.989 2.059 4.155 2.89 4.155.317 0 1.624-.515 2.852-1.187 1.267-.634 2.85-1.306 3.564-1.425l1.267-.238L30.403 39c-.95 3.483.277 8.272 2.772 10.963 2.455 2.651 7.762 4.115 11.286 3.126 1.346-.396 1.465-.356 1.465.435 0 1.9-1.307 8.707-2.574 13.614-1.109 4.156-1.307 5.462-.99 6.293.594 1.543 6.336 9.972 10.454 15.315 1.98 2.573 3.841 5.026 4.119 5.382.435.634 0 1.188-3.762 4.829-4.87 4.669-10.256 8.864-13.86 10.724l-2.455 1.267-1.703-.91c-3.801-2.098-8.395-5.383-11.246-8.074l-3.05-2.889 7.643-4.749c4.198-2.572 7.841-5.026 8.04-5.382.712-1.108-1.941-5.343-3.09-4.907-.316.118-4.078 2.374-8.395 5.026-4.316 2.651-7.92 4.867-8.038 4.907-.317.198-2.06-2.414-2.139-3.166 0-.396 2.772-2.335 7.88-5.5 4.356-2.692 8.079-5.185 8.277-5.502.435-.673-1.347-3.997-2.495-4.63-.594-.317-2.218.554-8.712 4.551-4.395 2.73-8.157 4.947-8.316 4.947-.435 0-1.742-3.443-1.465-3.918.119-.198 3.604-2.414 7.722-4.947s7.603-4.868 7.722-5.224c.277-.752-1.544-3.957-2.534-4.511-.713-.396-.99-.238-11.207 6.015-2.138 1.306-3.92 2.335-4 2.256-.079-.08-.475-2.018-.831-4.274-.91-5.303-.634-15.237.515-20.223 4.554-19.431 18.136-34.47 36.827-40.802l3.247-1.108v8.825c0 6.49.119 8.984.515 9.498.396.554.99.633 3.049.554l2.574-.119.119-9.972.079-9.973 1.109-.159c.594-.079 1.544-.198 2.178-.237l1.069-.04v9.617zM40.5 39.396c2.455 1.227 5.03 4.235 5.03 5.857 0 1.583-4.515 2.375-6.733 1.227-2.138-1.108-2.97-4.274-1.94-7.242.475-1.346.673-1.306 3.643.158zm45.816 1.069c.396 1.74.396 2.334-.118 3.561-1.149 2.691-4.99 3.918-7.802 2.454-1.069-.554-1.108-.673-.712-1.86.752-2.216 2.138-3.68 4.91-5.145 1.505-.791 2.851-1.345 3.01-1.266.118.079.475 1.108.712 2.256zM71.032 77.032c-1.98 3.047-6.692 9.419-9.306 12.506-.317.435-10.256-12.466-10.256-13.337 0-.119 4.554-.238 10.137-.238h10.138l-.713 1.069zm.634 31.937c1.742 1.385 3.96 3.047 4.95 3.68 2.02 1.267 2.138 1.504.91 1.861-4.276 1.226-8.751 1.899-13.78 2.097-6.257.237-10.296-.158-15.998-1.543-3.366-.832-3.485-.911-2.614-1.465 3.524-2.374 8-6.015 11.84-9.775l4.515-4.353 3.484 3.443c1.94 1.939 4.95 4.63 6.693 6.055z"></path></svg>