<svg width="160" height="29" viewBox="0 0 160 29" fill="currentColor" xmlns="http://www.w3.org/2000/svg"><path fill-rule="evenodd" clip-rule="evenodd" d="M2.945 1.438h10.822a2.664 2.664 0 012.648 2.664v20.192a2.664 2.664 0 01-2.648 2.664H2.945a2.664 2.664 0 01-2.648-2.664V4.102a2.664 2.664 0 012.648-2.665zm2.35 17.643c.14.141.33.22.53.221l5.22.002a.753.753 0 00.75-.75v-.62a.753.753 0 00-.75-.751H8.171l3.175-4.901c.255-.42.397-.898.413-1.39v-.431a.753.753 0 00-.75-.751H6.182a.753.753 0 00-.75.75v.58a.753.753 0 00.75.751h2.59l-3.287 5.07c-.254.42-.396.899-.412 1.39v.3c0 .2.08.39.22.53zM20.946 1.438h10.822a2.665 2.665 0 012.649 2.664v20.192a2.663 2.663 0 01-2.65 2.664h-10.82a2.665 2.665 0 01-2.65-2.664V4.102a2.664 2.664 0 012.65-2.665zm9.175 8.48a.943.943 0 00-.325.522l-.528 2.576a26.022 26.022 0 00-.394 3.19h-.037a19.78 19.78 0 00-.414-2.629l-.732-3.135a.943.943 0 00-.919-.733h-.938a.943.943 0 00-.919.733l-.677 2.948c-.227.938-.384 1.891-.469 2.852h-.018a30.362 30.362 0 00-.414-3.079l-.58-2.723a.942.942 0 00-.902-.732h-1.164a.586.586 0 00-.563.732l2.16 8.13a.98.98 0 00.938.733h.884a.943.943 0 00.918-.733l.77-3.248c.197-.873.341-1.757.432-2.648h.019c.075.62.244 1.71.45 2.592l.733 3.304a.944.944 0 00.918.733h.918a.983.983 0 00.94-.733l2.233-8.13a.586.586 0 00-.562-.732h-1.181a.942.942 0 00-.577.21z"></path><path fill-rule="evenodd" clip-rule="evenodd" d="M53.488 4.394L43.455.341A2.664 2.664 0 0040 1.819L32.437 20.54a2.664 2.664 0 001.455 3.462l10.033 4.054a2.664 2.664 0 003.455-1.478l7.564-18.723a2.666 2.666 0 00-1.458-3.462h.002zm-12.705 14.91a.753.753 0 01-.752-.751v-6.854l-.357-.093a.945.945 0 01-.732-.919v-.225a.754.754 0 01.75-.75h2.254a.754.754 0 01.752.75v8.093a.754.754 0 01-.752.75l-1.163-.002zm.58-10.703a1.579 1.579 0 01-1.595-1.577 1.594 1.594 0 013.158-.336 1.594 1.594 0 01-1.563 1.913zm3.827 14.316a.803.803 0 00.586.03l-.001.002c1.802-.62 2.403-1.822 2.403-4.056v-8.43a.753.753 0 00-.752-.751h-2.254a.754.754 0 00-.75.75v.226a.945.945 0 00.732.918l.357.094v7.341c0 1.033-.111 1.502-.58 1.877a1.027 1.027 0 00-.32 1.184l.17.394a.802.802 0 00.409.42zm1.046-14.429c.193.078.4.117.609.115a1.595 1.595 0 10-1.595-1.577 1.58 1.58 0 00.986 1.462z"></path><path fill-rule="evenodd" clip-rule="evenodd" d="M53.72 1.438h10.823a2.664 2.664 0 012.648 2.664v20.192a2.663 2.663 0 01-2.65 2.664H53.72a2.664 2.664 0 01-2.65-2.664V4.102a2.665 2.665 0 012.65-2.665zm2.461 17.564c.907.364 1.875.549 2.852.544l.004.001c2.44 0 3.511-1.164 3.511-3.173 0-2.028-1.145-2.61-2.628-3.023-1.073-.301-1.354-.396-1.354-1.015 0-.525.377-.75.957-.75.446-.007.89.057 1.315.188a.783.783 0 00.958-.49l.168-.543a.747.747 0 00-.215-.81.755.755 0 00-.255-.149 6.827 6.827 0 00-2.253-.32c-2.046 0-3.267.996-3.267 2.912 0 1.802.883 2.554 2.291 2.966 1.221.357 1.634.507 1.634 1.183 0 .582-.413.845-1.296.845a3.815 3.815 0 01-1.595-.357.743.743 0 00-.976.394l-.264.62a.77.77 0 00.413.977zM71.72 1.438h10.82a2.663 2.663 0 012.65 2.664v20.192a2.665 2.665 0 01-2.649 2.664H71.72a2.664 2.664 0 01-2.65-2.664V4.102a2.664 2.664 0 012.65-2.665zm1.39 13.02c0 3.606 1.447 5.09 4.657 5.09a4.96 4.96 0 002.592-.696.713.713 0 00.226-1.015l-.319-.526a.804.804 0 00-1.07-.242 2.999 2.999 0 01-1.484.394c-1.165 0-1.634-.375-1.727-2.121h4.806a.371.371 0 00.356-.376v-.394c0-3.53-1.126-5.108-4.017-5.108-2.517 0-4.02 1.37-4.02 4.995zm2.874-.92c.075-1.728.395-2.16 1.24-2.16 1.013 0 1.201.62 1.239 2.16h-2.479zM89.72 1.438h10.821a2.664 2.664 0 012.649 2.664v20.192a2.666 2.666 0 01-2.649 2.664H89.72a2.664 2.664 0 01-2.65-2.664V4.102a2.664 2.664 0 012.65-2.665zm1.857 17.645c.14.14.332.22.53.22h1.146a.754.754 0 00.75-.75v-6.404a2.042 2.042 0 011.39-.563c.543 0 .882.208.882 1.126v5.84a.755.755 0 00.751.75h1.164a.753.753 0 00.751-.75v-6.44c0-1.953-.863-2.648-2.497-2.648a3.694 3.694 0 00-2.704 1.165l-.037-.188a.977.977 0 00-.939-.733h-.657a.752.752 0 00-.75.751v8.093c0 .2.08.39.22.53z"></path><path d="M113.184 12.684a.311.311 0 01-.309-.309V6.102a.311.311 0 01.309-.309h2.001c1.274 0 1.892.648 1.892 1.802 0 .736-.189 1.145-.867 1.424.658.169 1.145.676 1.145 1.682 0 1.394-.786 1.982-2.16 1.982l-2.011.001zm.876-4.052h.936c.666 0 .846-.309.846-.926 0-.607-.219-.916-.886-.916h-.896v1.842zm0 3.056h.945c.767 0 1.066-.318 1.066-1.045 0-.687-.249-1.035-1.046-1.035h-.967l.002 2.08zM118.867 12.681a.31.31 0 01-.308-.308V7.952a.307.307 0 01.308-.309h.291a.374.374 0 01.368.299l.069.338a1.678 1.678 0 011.315-.725.826.826 0 01.159.01c.019 0 .038.006.054.015a.123.123 0 01.043.036.125.125 0 01.023.108l-.13.816a.174.174 0 01-.026.07.172.172 0 01-.051.053.182.182 0 01-.142.027 1.33 1.33 0 00-.219-.02 1.288 1.288 0 00-.926.369v3.335a.312.312 0 01-.309.308l-.519-.001zM124.125 12.809c-1.503 0-2.25-.767-2.25-2.659 0-1.91.776-2.638 2.04-2.638 1.354 0 1.992.757 1.992 2.598v.189a.177.177 0 01-.169.18h-2.659c.04 1.155.319 1.413 1.036 1.413.321.004.637-.09.905-.27a.315.315 0 01.428.091l.189.269a.304.304 0 01.049.23.3.3 0 01-.129.197 2.54 2.54 0 01-1.434.399m-.198-4.45c-.508 0-.777.258-.837 1.314h1.653c-.01-.976-.19-1.314-.816-1.314zM127.41 12.679a.31.31 0 01-.308-.309V7.95a.307.307 0 01.308-.31h.29a.394.394 0 01.378.3l.048.248a2.059 2.059 0 011.483-.676c.797 0 1.265.369 1.265 1.314v3.546a.312.312 0 01-.309.308h-.517a.31.31 0 01-.309-.308V9.116c0-.528-.169-.657-.537-.657a1.477 1.477 0 00-.967.448v3.465a.311.311 0 01-.309.308l-.516-.001zM134.039 14.591c-1.443 0-2.07-.487-2.07-1.324a1.1 1.1 0 01.656-.986.878.878 0 01-.398-.766 1.198 1.198 0 01.548-1.026 1.501 1.501 0 01-.618-1.334c0-1.063.657-1.643 1.892-1.643.274-.003.546.041.806.13h1.194a.305.305 0 01.299.298v.02a.41.41 0 01-.29.387l-.29.099c.113.243.171.508.169.776 0 1.064-.628 1.574-1.881 1.574-.197 0-.393-.016-.588-.048a.834.834 0 00-.219.487c0 .14.099.25.339.25h.918c1.055 0 1.772.427 1.772 1.432 0 1.086-.687 1.673-2.24 1.673m-.806-2.12a.975.975 0 00-.22.647c0 .438.15.676 1.046.676.717 0 1.085-.268 1.085-.756 0-.458-.29-.567-.866-.567h-1.045zm.816-2.449c.567 0 .786-.249.786-.827 0-.597-.198-.846-.786-.846-.538 0-.767.249-.767.846 0 .568.219.827.767.827zM140.938 12.79c-.856 0-1.075-.428-1.075-1.414V5.742a.308.308 0 01.309-.308h.517a.313.313 0 01.309.308v5.774c0 .219.069.329.209.369.199.059.328.119.359.318l.029.21a.278.278 0 01-.133.29.279.279 0 01-.106.038 1.925 1.925 0 01-.418.048M144.632 12.809c-1.502 0-2.249-.767-2.249-2.659 0-1.91.776-2.638 2.04-2.638 1.354 0 1.992.757 1.992 2.598v.189a.18.18 0 01-.169.18h-2.659c.04 1.155.318 1.413 1.035 1.413.322.004.638-.09.906-.27a.315.315 0 01.427.091l.19.269c.023.033.039.07.047.11.009.04.01.08.002.12a.286.286 0 01-.045.112.298.298 0 01-.084.085 2.542 2.542 0 01-1.434.399m-.199-4.45c-.508 0-.776.258-.836 1.314h1.652c-.009-.976-.189-1.314-.816-1.314zM147.914 12.681a.313.313 0 01-.309-.308V7.952a.313.313 0 01.309-.309h.29a.375.375 0 01.369.299l.069.338a1.682 1.682 0 011.315-.725.826.826 0 01.159.01.13.13 0 01.098.051.138.138 0 01.023.052.135.135 0 01-.001.056l-.13.816a.16.16 0 01-.026.07.172.172 0 01-.051.053.182.182 0 01-.142.027 1.321 1.321 0 00-.219-.02 1.283 1.283 0 00-.926.369v3.335a.312.312 0 01-.309.308l-.519-.001zM153.168 12.809c-1.503 0-2.25-.767-2.25-2.659 0-1.91.776-2.638 2.04-2.638 1.354 0 1.992.757 1.992 2.598v.189a.177.177 0 01-.169.18h-2.659c.04 1.155.319 1.413 1.035 1.413.322.004.638-.09.906-.27a.315.315 0 01.428.091l.189.269a.304.304 0 01.004.342.298.298 0 01-.084.085 2.54 2.54 0 01-1.434.399m-.196-4.446c-.508 0-.777.258-.836 1.314h1.652c-.01-.976-.189-1.314-.816-1.314zM156.453 12.679a.308.308 0 01-.308-.309V7.95a.309.309 0 01.308-.309h.29a.392.392 0 01.378.299l.048.248a2.063 2.063 0 011.484-.676c.796 0 1.264.369 1.264 1.314v3.546a.31.31 0 01-.309.308h-.517a.312.312 0 01-.309-.308V9.116c0-.528-.169-.657-.537-.657a1.477 1.477 0 00-.967.448v3.465a.31.31 0 01-.309.308l-.516-.001zM112.719 18.671a.31.31 0 01-.309-.308v-.26a.312.312 0 01.309-.308h.241v-.956a.377.377 0 01.298-.368l.528-.1a.256.256 0 01.207.055.262.262 0 01.092.194v1.175h.676a.31.31 0 01.309.308v.26a.312.312 0 01-.309.308h-.676v2.917c0 .378.129.497.386.497.091-.002.182-.015.27-.039a.227.227 0 01.181.022.242.242 0 01.109.147l.059.259a.338.338 0 01-.229.398c-.19.06-.389.09-.588.09-.776 0-1.314-.29-1.314-1.165V18.67h-.24zM118.011 22.965c-1.305 0-2.12-.767-2.12-2.659 0-1.902.806-2.638 2.11-2.638 1.304 0 2.13.756 2.13 2.648 0 1.891-.816 2.648-2.12 2.648m0-.856c.657 0 .906-.379.906-1.802 0-1.444-.259-1.782-.916-1.782-.658 0-.906.348-.906 1.792 0 1.424.259 1.792.916 1.792zM121.207 18.671a.31.31 0 01-.309-.308v-.26a.31.31 0 01.309-.308h.242v-.956a.378.378 0 01.297-.368l.528-.1a.255.255 0 01.299.25v1.174h.677c.081 0 .16.033.218.09a.31.31 0 01.09.218v.26a.31.31 0 01-.308.308h-.677v2.917c0 .378.129.497.387.497.091-.002.181-.015.269-.039a.232.232 0 01.29.17l.059.258a.34.34 0 01-.229.398c-.19.06-.388.09-.588.09-.776 0-1.313-.29-1.313-1.165V18.67h-.241zM128.196 22.945c-.856 0-1.075-.428-1.075-1.414v-5.637a.312.312 0 01.308-.308h.518a.31.31 0 01.309.308v5.774c0 .22.07.33.209.37.199.058.329.118.359.317l.03.21a.304.304 0 01-.003.112.285.285 0 01-.236.216 1.93 1.93 0 01-.418.049M131.886 22.96c-1.502 0-2.249-.766-2.249-2.658 0-1.91.776-2.638 2.04-2.638 1.354 0 1.992.757 1.992 2.598v.19a.18.18 0 01-.17.18h-2.659c.04 1.154.319 1.412 1.036 1.412.322.004.638-.09.906-.269a.315.315 0 01.427.09l.189.269a.3.3 0 01.05.23.31.31 0 01-.129.197 2.54 2.54 0 01-1.434.399m-.199-4.45c-.508 0-.777.259-.836 1.314h1.652c-.009-.976-.189-1.314-.816-1.314zM136.329 22.833a.436.436 0 01-.408-.29l-1.484-4.46a.225.225 0 01-.009-.103.224.224 0 01.218-.187h.588a.416.416 0 01.398.299l.608 2.071c.099.338.229.967.328 1.384h.01c.06-.369.189-1.006.308-1.433l.588-2.022a.412.412 0 01.398-.299h.548c.035 0 .069.009.1.024a.222.222 0 01.109.266l-1.473 4.46a.443.443 0 01-.408.29h-.419zM141.593 22.96c-1.502 0-2.249-.766-2.249-2.658 0-1.91.776-2.638 2.04-2.638 1.354 0 1.992.757 1.992 2.598v.19a.18.18 0 01-.17.18h-2.658c.04 1.154.318 1.412 1.035 1.412.322.004.638-.09.906-.269a.315.315 0 01.427.09l.19.269a.304.304 0 01-.079.428 2.542 2.542 0 01-1.435.398m-.198-4.45c-.508 0-.777.259-.836 1.314h1.652c-.01-.976-.19-1.314-.816-1.314zM144.879 22.835a.312.312 0 01-.309-.308v-4.421a.313.313 0 01.309-.309h.29a.395.395 0 01.378.299l.048.249a2.07 2.07 0 011.484-.677c.796 0 1.264.369 1.264 1.314v3.545a.312.312 0 01-.309.308h-.517a.311.311 0 01-.309-.308V19.27c0-.527-.169-.657-.537-.657a1.477 1.477 0 00-.967.448v3.465a.313.313 0 01-.309.308h-.516z"></path></svg>